HIERARCHY
ROOT root
{
	OFFSET 0.000000 0.000000 0.000000
	CHANNELS 6 Xposition Yposition Zposition Zrotation Yrotation Xrotation
	JOINT lhip
	{
		OFFSET 0.058581 -0.082280 -0.017664
		CHANNELS 3 Zrotation Yrotation Xrotation
		JOINT lknee
		{
			OFFSET 0.043451 -0.386469 0.008037
			CHANNELS 3 Zrotation Yrotation Xrotation
			JOINT lankle
			{
				OFFSET -0.014790 -0.426874 -0.037428
				CHANNELS 3 Zrotation Yrotation Xrotation
				JOINT ltoe
				{
					OFFSET 0.041054 -0.060286 0.122042
					CHANNELS 3 Zrotation Yrotation Xrotation
					End Site
					{
						OFFSET 0.000000 0.000000 0.000000
					}
				}
			}
		}
	}
	JOINT rhip
	{
		OFFSET -0.060310 -0.090513 -0.013543
		CHANNELS 3 Zrotation Yrotation Xrotation
		JOINT rknee
		{
			OFFSET -0.043257 -0.383688 -0.004843
			CHANNELS 3 Zrotation Yrotation Xrotation
			JOINT rankle
			{
				OFFSET 0.019056 -0.420046 -0.034562
				CHANNELS 3 Zrotation Yrotation Xrotation
				JOINT rtoe
				{
					OFFSET -0.034840 -0.062106 0.130323
					CHANNELS 3 Zrotation Yrotation Xrotation
					End Site
					{
						OFFSET 0.000000 0.000000 0.000000
					}
				}
			}
		}
	}
	JOINT lowerback
	{
		OFFSET 0.004439 0.124404 -0.038385
		CHANNELS 3 Zrotation Yrotation Xrotation
		JOINT upperback
		{
			OFFSET 0.004488 0.137956 0.026820
			CHANNELS 3 Zrotation Yrotation Xrotation
			JOINT chest
			{
				OFFSET -0.002265 0.056032 0.002855
				CHANNELS 3 Zrotation Yrotation Xrotation
				JOINT lowerneck
				{
					OFFSET -0.013390 0.211636 -0.033468
					CHANNELS 3 Zrotation Yrotation Xrotation
					JOINT upperneck
					{
						OFFSET 0.010113 0.088937 0.050410
						CHANNELS 3 Zrotation Yrotation Xrotation
						End Site
						{
							OFFSET 0.000000 0.000000 0.000000
						}
					}
				}
				JOINT lclavicle
				{
					OFFSET 0.071702 0.114000 -0.018898
					CHANNELS 3 Zrotation Yrotation Xrotation
					JOINT lshoulder
					{
						OFFSET 0.122921 0.045205 -0.019046
						CHANNELS 3 Zrotation Yrotation Xrotation
						JOINT lelbow
						{
							OFFSET 0.255332 -0.015649 -0.022946
							CHANNELS 3 Zrotation Yrotation Xrotation
							JOINT lwrist
							{
								OFFSET 0.265709 0.012698 -0.007375
								CHANNELS 3 Zrotation Yrotation Xrotation
								End Site
								{
									OFFSET 0.000000 0.000000 0.000000
								}
							}
						}
					}
				}
				JOINT rclavicle
				{
					OFFSET -0.082954 0.112472 -0.023707
					CHANNELS 3 Zrotation Yrotation Xrotation
					JOINT rshoulder
					{
						OFFSET -0.113228 0.046853 -0.008472
						CHANNELS 3 Zrotation Yrotation Xrotation
						JOINT relbow
						{
							OFFSET -0.260127 -0.014369 -0.031269
							CHANNELS 3 Zrotation Yrotation Xrotation
							JOINT rwrist
							{
								OFFSET -0.269108 0.006794 -0.006027
								CHANNELS 3 Zrotation Yrotation Xrotation
								End Site
								{
									OFFSET 0.000000 0.000000 0.000000
								}
							}
						}
					}
				}
			}
		}
	}
}
MOTION
Frames: 13
Frame Time: 0.033333
-2.061052 0.822034 0.976151 172.572882 -3.138041 83.946331 1.683098 -4.446403 -15.020656 0.173245 -2.279175 6.972163 0.882383 10.785492 -5.015487 0.000000 -0.000000 0.000000 0.941830 -4.686633 18.223417 -2.969050 4.512312 16.396133 0.603658 -8.863737 -12.910649 0.000000 -0.000000 0.000000 -2.703049 7.641398 7.695292 0.745144 -2.183728 -0.190705 -0.250500 2.779027 3.929129 8.019985 -9.033586 -4.319858 9.826305 -18.268687 1.351921 -20.744058 6.004463 -2.020150 -51.310906 -3.930096 3.807814 7.914997 -16.486568 -0.385479 -0.788083 0.898512 -9.590357 20.937568 3.334441 -2.517235 55.577054 7.321514 15.652995 -10.460042 31.602813 8.055227 1.959811 0.747281 -3.761014 
-2.067513 0.859442 0.978312 171.528421 -3.459972 84.063271 0.680091 -4.233582 -13.033822 -0.244524 -3.016049 7.816103 1.726505 11.602562 -2.028144 0.000000 -0.000000 0.000000 -0.653283 -4.090447 16.832961 -2.084452 4.333325 22.870889 3.009126 -8.041244 -6.721246 0.000000 -0.000000 0.000000 -3.391363 7.005568 6.448305 1.047843 -2.131613 0.010662 -0.460374 2.649241 3.797606 7.931948 -10.082602 -3.287357 10.141230 -17.688381 1.774688 -21.223608 6.104579 -1.928845 -49.848872 -4.415266 3.389802 8.361185 -16.168713 -2.304015 -1.076724 0.717315 -8.677907 21.650528 2.383327 -2.546216 55.246063 5.533722 15.806549 -11.311697 31.663306 6.804368 4.457732 0.469725 -3.210775 
-2.073624 0.896508 0.982923 170.883702 -3.648852 83.273946 -0.335943 -3.746393 -9.691269 -0.729097 -3.542733 8.378558 3.039546 12.611047 -3.192014 0.000000 -0.000000 0.000000 -2.093764 -3.511825 14.202433 -1.534847 4.162438 31.788420 5.744455 -7.577495 2.198199 0.000000 -0.000000 0.000000 -3.660927 6.208151 6.313273 1.240515 -1.987205 0.233677 -0.590202 2.321178 3.746403 8.076450 -11.555983 -2.529591 10.250335 -17.089852 1.987541 -21.596683 5.571757 -1.646577 -48.631582 -5.233933 2.911040 8.261291 -15.909294 -3.644958 -0.451370 0.648443 -7.678100 21.758374 1.389230 -2.726420 55.283586 3.679652 15.648324 -11.935943 31.375471 5.568635 5.547340 0.302347 -2.384452 
-2.078527 0.929504 0.986658 170.607995 -4.243949 82.741314 -1.479206 -3.504458 -6.415495 -1.654261 -3.784358 7.996555 4.170725 13.920923 -4.600404 0.000000 -0.000000 0.000000 -3.230641 -2.341724 8.834667 -0.959133 3.694649 43.810452 5.105641 -8.395044 8.649866 0.000000 -0.000000 0.000000 -4.251424 4.493982 6.377429 1.283763 -2.000152 0.851298 -1.075417 2.195169 3.794529 7.887290 -12.119011 -2.032399 10.914251 -16.517145 1.202375 -21.392068 4.772583 -1.436900 -48.109303 -6.249742 2.363114 8.790919 -16.636239 -4.802305 -1.358806 1.209704 -7.878108 21.500691 1.171998 -2.767668 56.021503 2.599936 15.595460 -12.751420 30.875100 4.935883 8.298644 -0.843121 -2.135093 
-2.081355 0.959779 0.990139 170.587223 -4.287567 81.529714 -2.544674 -2.502733 -2.310795 -1.582922 -5.509399 7.115517 5.026299 14.864918 -5.649672 0.000000 -0.000000 0.000000 -3.616195 -1.508712 3.556135 -0.588868 2.449053 54.044549 4.383606 -9.454318 12.894509 0.000000 -0.000000 0.000000 -4.251718 2.680866 7.915532 1.196719 -1.889947 1.453454 -1.308896 1.579477 3.698579 8.029513 -12.782368 -2.393260 10.895186 -15.775869 0.468921 -21.718297 3.247292 -1.036384 -46.992678 -7.372536 2.093253 9.161650 -17.682120 -5.899378 -0.964018 1.183651 -7.921339 21.452988 1.642026 -2.686771 56.009081 1.559856 15.644632 -13.175026 30.547059 3.643093 8.757796 -0.293686 -2.912020 
-2.082086 0.988343 0.992836 170.529890 -3.768674 80.162168 -3.019044 -1.415080 1.989687 -0.783431 -7.103318 5.865631 4.866639 15.832315 -7.065973 0.000000 -0.000000 0.000000 -2.756691 -0.509309 -1.289450 -1.042864 0.001900 60.398442 3.217844 -11.180237 7.880999 0.000000 -0.000000 0.000000 -4.081550 0.651973 9.790792 1.303165 -1.776528 1.974545 -1.203882 1.238086 3.629626 7.937803 -12.471616 -2.612017 10.760020 -15.791112 0.003015 -21.836735 1.180046 -1.182083 -46.227589 -8.497644 1.837955 9.640589 -18.260321 -7.134618 -2.209163 0.976828 -7.224682 20.994463 2.445357 -2.902385 55.806796 -0.137929 15.323152 -12.675981 31.650435 3.994178 13.205293 -1.392116 -3.277587 
-2.081886 1.016525 0.995954 171.126980 -2.958094 79.111107 -2.853313 0.132503 5.995046 -0.027973 -9.309761 4.397428 4.280914 16.224598 -8.528836 0.000000 -0.000000 0.000000 -1.648519 -0.118897 -5.573670 -1.660931 -2.700161 62.101927 2.171048 -11.403012 1.665160 0.000000 -0.000000 0.000000 -3.552106 -0.974116 11.367665 1.311072 -1.903680 2.002265 -1.049363 0.645043 3.442051 7.610755 -12.333554 -1.937572 10.799516 -16.342169 -0.507965 -21.209664 -0.916252 -1.047864 -46.664175 -10.204797 2.098763 10.476861 -18.283593 -6.440214 -1.856427 1.093559 -6.154556 20.204122 2.996911 -2.828550 56.509327 -1.611904 14.478826 -12.250590 31.156851 5.059038 12.972291 -0.841305 -3.817171 
-2.079961 1.043711 0.997700 171.812497 -2.010882 78.725864 -1.980754 1.876961 8.936517 0.474578 -10.829237 3.242745 3.922867 15.984482 -9.885161 0.000000 -0.000000 0.000000 -0.982741 -0.663157 -9.733794 -1.999043 -6.163776 59.643280 2.804056 -10.796863 -3.604757 0.000000 -0.000000 0.000000 -3.186448 -2.336068 12.176386 1.481452 -2.233205 1.712307 -0.667574 0.049149 3.650961 7.620960 -11.966436 -1.238651 11.039230 -16.883660 -1.072479 -20.451490 -2.206660 -1.389704 -47.582290 -12.476216 2.603730 10.872063 -18.598849 -5.390236 -0.813417 1.431394 -5.051868 19.534493 2.815619 -2.605183 57.282919 -2.529534 13.773184 -12.086786 30.822540 5.908559 11.021999 -0.508575 -3.378273 
-2.076509 1.069319 0.997758 172.662430 -1.463702 78.658334 -1.108055 2.973695 11.033365 0.563502 -12.323225 3.032308 3.651388 15.354303 -11.255241 0.000000 -0.000000 0.000000 -0.213644 -1.012336 -13.270444 -2.487317 -9.102475 53.506726 2.408985 -11.574816 -7.354338 0.000000 -0.000000 0.000000 -3.307401 -3.477428 13.089488 1.620999 -2.535697 0.844514 -0.305837 -0.701015 4.134769 7.829817 -11.941996 -1.118358 11.076474 -17.427088 -1.087369 -19.349374 -2.436581 -2.099435 -48.965400 -15.310031 3.291969 10.509299 -19.568109 -3.832698 -1.078763 1.191064 -5.153959 18.299578 1.510315 -3.222211 58.593225 -2.899250 13.460111 -11.206185 30.056686 7.357004 10.715119 -0.637419 -2.904482 
-2.072430 1.094606 0.996601 172.885978 -1.276285 78.634727 -0.622391 3.738817 12.863645 0.576406 -12.698398 3.348148 3.429321 14.747892 -12.691626 0.000000 -0.000000 0.000000 0.439775 -1.734303 -15.579578 -3.556409 -12.494090 44.191670 2.109074 -14.094684 -9.264161 0.000000 -0.000000 0.000000 -3.401493 -4.216482 13.762767 1.478687 -2.792684 0.404603 -0.057176 -1.172541 4.299249 7.706029 -12.567087 -0.875721 11.721030 -17.915403 -1.594543 -18.428663 -3.018696 -2.161436 -50.029109 -17.810860 4.026651 10.208273 -21.282474 -3.054627 -0.734629 0.745187 -7.149163 17.143526 1.434323 -3.158445 60.173354 -4.055578 13.734950 -11.768934 29.877487 7.251888 9.934083 -1.225868 -4.570737 
-2.068450 1.119482 0.994339 172.698983 -1.636908 78.671026 -1.048996 4.596563 14.391472 1.018241 -12.648103 4.275539 2.907011 14.403315 -14.706919 0.000000 -0.000000 0.000000 0.654390 -3.090811 -16.677882 -4.173938 -15.423837 33.115048 2.610576 -15.361306 -9.995166 0.000000 -0.000000 0.000000 -3.582644 -4.593046 13.864283 1.041828 -2.995144 0.024352 -0.042278 -1.687104 4.926409 7.604872 -13.168917 -1.035821 12.193607 -18.260209 -2.120695 -17.145898 -3.062431 -2.527127 -51.432362 -20.650825 4.775327 9.714899 -22.437287 -1.506710 -0.925758 -0.048809 -8.377112 15.828167 -0.246522 -3.805081 61.528459 -3.844570 13.351200 -10.681687 29.420497 9.374980 11.026569 -1.280552 -4.267489 
-2.061270 1.144332 0.990943 172.055100 -1.802354 79.095221 -0.759773 5.234429 15.607947 0.902120 -11.759898 5.153326 2.513163 13.750163 -16.304868 0.000000 -0.000000 0.000000 2.095803 -3.648035 -16.945497 -4.680464 -17.709266 20.098325 3.095100 -16.661326 -7.786160 0.000000 -0.000000 0.000000 -3.759464 -4.676797 13.372968 0.728472 -3.319297 0.111508 0.082487 -1.694254 4.991679 6.862648 -14.114296 -0.482120 13.225062 -18.399371 -2.871493 -16.006455 -3.562396 -2.360895 -52.344278 -22.925916 5.663760 8.946267 -23.581370 -0.534869 -1.679336 -1.167103 -9.636681 14.973953 -0.602978 -3.705065 62.496583 -4.465902 13.438428 -11.006439 29.211182 9.357045 12.147207 -1.107790 -4.819203 
-2.054066 1.170046 0.987068 171.172831 -2.835138 79.701777 -1.438817 6.270823 16.955894 1.087712 -10.959124 5.572343 2.174808 12.944219 -17.190031 0.000000 -0.000000 0.000000 3.141496 -4.873442 -17.025162 -5.637964 -18.994693 8.791421 4.146110 -17.137245 -6.397919 0.000000 -0.000000 0.000000 -4.355386 -4.247558 12.515835 0.186182 -3.580849 0.067767 0.207058 -2.178996 5.095715 6.154122 -14.762947 0.083169 13.751226 -18.563116 -3.605278 -15.385013 -3.895481 -2.543593 -53.160289 -24.459922 6.523293 8.169764 -24.191599 1.177859 -1.373034 -1.533504 -8.961583 14.442654 -0.950198 -3.629252 62.808733 -4.796639 13.548857 -10.595540 29.087870 10.005165 12.195411 -1.270632 -5.136681 
